<svg width="120" height="62" viewBox="0 0 120 62" fill="none" xmlns="http://www.w3.org/2000/svg">
<path d="M119.56 36.5508C117.275 35.8708 115.971 35.6743 115.22 36.4904C114.476 37.2989 114.898 38.3417 115.358 39.445C115.971 40.9412 116.815 42.9965 115.749 45.1728C114.361 48.0065 110.135 50.4548 103.195 52.4573L103.832 54.6033C111.516 52.3817 116.086 49.616 117.789 46.1476C119.3 43.0797 118.149 40.2762 117.459 38.6062C117.413 38.5004 117.367 38.3871 117.321 38.2737C117.674 38.3493 118.18 38.4702 118.901 38.6893L119.56 36.5508Z" fill="#827D7A"/>
<path d="M103.445 41.4929C104.235 42.1956 106.406 43.586 110.217 42.2939C109.166 44.5381 105.577 46.3895 99.9179 47.5154C98.2308 47.8479 96.3366 48.1275 94.2891 48.3391L94.5191 50.5607C96.6434 50.3491 98.6065 50.0619 100.363 49.7068C112.065 47.3794 113.139 42.6415 112.732 40.0269C112.18 36.4753 108.415 33.7626 105.731 34.0422C103.959 34.2235 102.594 35.2436 102.088 36.7776C101.544 38.4249 102.073 40.2687 103.438 41.4853L103.445 41.4929ZM104.251 37.4804C104.412 36.9967 104.841 36.3922 105.968 36.2713C106.022 36.2713 106.076 36.2638 106.137 36.2638C107.51 36.2638 109.787 37.8204 110.386 39.8909L110.363 39.838C108.062 40.843 106.091 40.843 104.964 39.838C104.274 39.2259 103.982 38.2738 104.251 37.4804Z" fill="#827D7A"/>
<path d="M35.5558 38.765C35.7628 38.5231 36.3993 38.1604 38.3088 37.9942C38.3472 39.7322 38.9223 41.047 40.0343 41.9085C42.841 44.0772 48.3011 42.7623 54.6278 41.2435C63.2627 39.1654 73.0556 36.8154 76.0234 43.5936L78.1093 42.7095C74.3823 34.2008 63.1324 36.9061 54.091 39.0748C48.8226 40.3443 43.3702 41.6515 41.4377 40.1553C40.8625 39.7095 40.5788 38.9614 40.5788 37.8582V35.6819C36.7904 35.6819 34.8196 36.1579 33.8227 37.3368C32.8564 38.4702 33.1095 39.8757 33.3549 41.2284C33.907 44.2585 34.6585 48.4146 20.6172 52.4649L21.2537 54.611C36.0082 50.3491 36.4223 45.4676 35.5865 40.8354C35.4177 39.906 35.272 39.1125 35.5558 38.7725V38.765Z" fill="#827D7A"/>
<path d="M30.193 40.0344C29.6409 36.4828 25.8832 33.77 23.1915 34.0496C21.4201 34.231 20.055 35.2511 19.5489 36.7851C19.0044 38.4324 19.5336 40.2762 20.8986 41.4928C21.6885 42.1955 23.851 43.5859 27.67 42.2938C26.6194 44.538 23.0305 46.3894 17.371 47.5153C15.6839 47.8478 13.7897 48.1274 11.7422 48.339L11.9722 50.5606C14.0888 50.349 16.0597 50.0618 17.8158 49.7067C29.5182 47.3793 30.5918 42.6414 30.1854 40.0268L30.193 40.0344ZM27.8234 39.8379C25.5228 40.8429 23.552 40.8429 22.4247 39.8379C21.7345 39.2258 21.4507 38.2737 21.7115 37.4803C21.8725 36.9966 22.302 36.3921 23.4293 36.2712C23.4829 36.2712 23.5366 36.2637 23.598 36.2637C24.9707 36.2637 27.2483 37.8203 27.8464 39.8908L27.8234 39.8379Z" fill="#827D7A"/>
<path d="M97.9633 34.3669C100.931 33.7775 101.207 32.5761 101.107 31.9111C100.969 31.0119 100.026 30.3242 99.3283 30.3922C98.8759 30.4376 98.5308 30.6945 98.4004 31.0874C98.2624 31.503 98.4004 31.9715 98.7455 32.2813C98.9449 32.4627 99.4893 32.8103 100.463 32.4854C100.195 33.0521 99.2823 33.5282 97.8482 33.8078C97.4188 33.8909 96.9433 33.9665 96.4219 34.0194L96.4832 34.5861C97.02 34.5332 97.5185 34.4576 97.9633 34.3669Z" fill="#827D7A"/>
<path d="M88.5411 46.5934C88.3953 43.2005 91.9996 40.6313 98.1959 39.7321L98.0272 38.6289L97.9045 37.5181C97.4444 37.571 96.9766 37.6239 96.4858 37.6843C93.242 38.0772 89.5687 38.5155 82.6745 37.6843L82.3984 39.9059C85.3049 40.2611 87.6898 40.3895 89.7067 40.3971C87.3831 42.0217 86.1561 44.1829 86.2635 46.7068C86.4858 51.8225 92.8585 57.6335 104.216 58.3136L104.354 56.0844C94.676 55.5026 88.7098 50.81 88.5257 46.6085L88.5411 46.5934Z" fill="#827D7A"/>
<path d="M31.7444 34.3669C34.7122 33.7775 34.9882 32.5761 34.8809 31.9111C34.7428 31.0119 33.7689 30.3242 33.1017 30.3922C32.6493 30.4376 32.3042 30.6945 32.1738 31.0874C32.0358 31.503 32.1738 31.9715 32.5189 32.2813C32.7183 32.4627 33.2705 32.8103 34.2367 32.4854C33.9683 33.0521 33.0557 33.5282 31.6217 33.8078C31.1922 33.8909 30.7168 33.9665 30.1953 34.0194L30.2567 34.5861C30.7935 34.5332 31.2919 34.4576 31.7367 34.3669H31.7444Z" fill="#827D7A"/>
<path d="M18.2668 43.6766L17.868 41.4777C17.0551 41.6213 16.2039 41.7875 15.3374 41.9538C11.0659 42.785 6.23464 43.7295 3.81133 42.1276C2.97545 41.5759 2.46165 40.7221 2.23159 39.5206L0 39.9362C0.345091 41.7271 1.20398 43.0872 2.546 43.9789C3.93403 44.9008 5.72084 45.2257 7.68402 45.2257C10.253 45.2257 13.1134 44.6665 15.7821 44.1451C16.6334 43.9789 17.4693 43.8127 18.2668 43.6766Z" fill="#827D7A"/>
<path d="M42.9688 49.7597C44.0654 50.0997 45.1773 49.6841 45.4534 48.8378C45.7295 47.9915 45.0546 47.0242 43.9504 46.6842C42.9688 46.3819 41.9718 46.6842 41.5807 47.3567C41.3123 47.062 40.9366 46.8202 40.4918 46.6842C39.3952 46.3442 38.2832 46.7598 38.0071 47.6061C37.7311 48.4524 38.4059 49.4197 39.5102 49.7597C40.4918 50.062 41.4887 49.7597 41.8798 49.0872C42.1482 49.3819 42.524 49.6237 42.9688 49.7597Z" fill="#827D7A"/>
<path d="M72.5124 47.5985C72.244 48.4524 72.9112 49.4121 74.0155 49.7521C75.1198 50.0922 76.2241 49.6766 76.5002 48.8302C76.7762 47.9839 76.1014 47.0167 74.9971 46.6766C73.8928 46.3366 72.7885 46.7522 72.5124 47.5985Z" fill="#827D7A"/>
<path d="M8.453 38.6063C9.43459 38.9085 10.4315 38.6062 10.8226 37.9337C11.091 38.2284 11.4668 38.4702 11.9116 38.6063C13.0082 38.9463 14.1202 38.5307 14.3962 37.6844C14.6723 36.838 13.9975 35.8708 12.8932 35.5308C11.9116 35.2285 10.9146 35.5307 10.5235 36.2033C10.2551 35.9086 9.87937 35.6668 9.43459 35.5308C8.33797 35.1907 7.22601 35.6063 6.94994 36.4526C6.68153 37.3065 7.34871 38.2662 8.453 38.6063Z" fill="#827D7A"/>
<path d="M61.4639 32.8859L61.3335 32.2587C60.8887 32.3493 50.0835 33.9211 49.5391 33.974L49.6081 34.6088C50.1526 34.5559 61.0114 32.969 61.4639 32.8783V32.8859Z" fill="#827D7A"/>
<path d="M68.4195 47.9006H49.5469V48.5429H68.4195V47.9006Z" fill="#827D7A"/>
<path d="M67.9385 8.61444C67.7315 8.38775 67.279 7.97213 66.5582 7.63964C67.1487 7.57919 67.6241 7.33739 67.9232 6.95956C68.2069 6.59685 68.299 6.12077 68.1763 5.69005C68.0536 5.26689 67.5935 4.20143 65.937 3.57424C65.2545 3.31732 64.7254 3.43821 64.2729 3.75559C64.2422 2.9546 63.9048 2.11582 63.529 1.48863C62.9616 0.551626 62.2561 0 61.6349 0C61.6195 0 61.6119 0 61.6042 0C61.3205 0.00755651 60.914 0.136027 60.6226 0.695209C60.3619 1.2015 59.7561 1.4282 59.1196 1.67001C58.23 2.01005 57.2177 2.39541 57.141 3.63468C57.1257 3.82359 57.1257 3.9974 57.1257 4.16365C56.6809 3.85383 56.2745 3.43822 55.8987 3.05284C55.2392 2.38031 54.6717 1.79847 54.0045 1.83625C53.6595 1.85892 53.345 2.05537 53.0766 2.41053C52.7852 2.79591 52.9233 3.25685 53.0306 3.63468C53.1763 4.14097 53.1917 4.32989 52.9769 4.47346C52.2177 5.00998 51.9187 5.55405 52.0797 6.10567C52.1794 6.44572 52.4555 6.7253 52.8389 6.97467C52.1487 7.11824 51.6196 7.45828 51.3052 7.82099C50.8451 8.34995 50.7147 8.99981 50.9524 9.57411C51.1595 10.0804 51.6503 10.4053 52.0874 10.6925C52.3941 10.8965 52.7392 11.1232 52.7622 11.297C52.7622 11.3121 52.7622 11.3348 52.7622 11.3499C52.7622 11.3726 52.7469 11.3952 52.7392 11.4103C52.7392 11.4254 52.7392 11.433 52.7239 11.4481C52.6932 11.501 52.6472 11.5615 52.5935 11.6295C52.5935 11.6295 52.5858 11.6446 52.5782 11.6446C52.4708 11.7579 52.4171 11.9846 52.5398 12.1282V12.1433C52.8542 12.37 53.1533 12.6421 53.4754 12.9292C54.3573 13.7226 55.3312 14.5992 56.9877 14.5992C57.2637 14.5992 57.5551 14.5765 57.8696 14.5236C57.9309 14.5992 57.9999 14.6672 58.0689 14.7352C58.322 14.9619 58.7285 15.1962 59.3343 15.2642C59.3343 15.4833 59.3343 15.7251 59.3343 15.9896C59.3189 17.2817 59.3036 19.1482 59.71 21.264C59.7024 21.264 59.6947 21.2565 59.687 21.2489C59.6334 21.2036 59.5797 21.1507 59.526 21.1054C57.4785 16.9493 56.0137 16.0803 52.9156 17.1231C55.1472 18.9593 52.9923 22.458 59.457 21.5361C59.457 21.5361 59.457 21.5361 59.4646 21.5361C59.6487 21.7099 59.7867 21.8761 59.8941 22.0801C60.0935 22.9038 60.3619 23.7577 60.7223 24.6267C60.7453 24.6947 60.776 24.7551 60.799 24.808C60.799 24.808 60.799 24.8156 60.799 24.8231C60.799 24.8231 60.799 24.8307 60.799 24.8383L61.1134 24.6947L61.4355 24.5587C61.3972 24.4755 61.3665 24.4 61.3358 24.3169C60.661 22.5184 60.0091 16.9568 60.8603 15.3624C60.9524 15.1962 61.0444 15.0904 61.1518 15.0526C61.3972 15.846 61.911 16.4656 62.5398 16.6772C62.6932 16.7301 62.8465 16.7528 62.9922 16.7528C63.3833 16.7528 63.7514 16.5865 64.0505 16.2692C64.3649 15.9367 64.71 15.9669 65.2085 16.0651C65.5459 16.1256 65.9293 16.2012 66.1824 15.9065C66.4508 15.5967 66.4431 15.2868 66.4355 14.9619C66.4355 14.7503 66.4278 14.5161 66.4738 14.1911C66.7116 12.7327 65.9677 12.4834 65.3159 12.2642C65.2008 12.2264 65.0935 12.1887 64.9784 12.1433C65.1471 12.0753 65.3235 12.0073 65.4999 11.9317C66.1901 11.6446 66.98 11.3272 67.7468 11.3046C68.1533 11.297 68.4677 11.093 68.6211 10.7529C68.8665 10.1786 68.5904 9.30964 67.9232 8.59177L67.9385 8.61444ZM59.9938 5.13088C60.1088 4.95708 60.1855 4.75305 60.2699 4.53391C60.4386 4.11074 60.6073 3.67248 60.9984 3.5138C61.6656 3.24176 62.8465 3.476 63.2913 3.96717C63.4754 4.17119 63.5214 4.39034 63.414 4.65481C63.4064 4.67748 63.391 4.70015 63.3833 4.72282C63.3833 4.72282 63.3757 4.73793 63.368 4.74549C63.23 4.94196 63.0919 5.15356 62.9616 5.35759C62.6088 5.90166 62.2407 6.46084 61.7959 6.89156C61.5199 6.55907 61.0444 6.39282 60.4462 6.41549C60.1625 6.43061 59.9171 6.52129 59.7254 6.67998C59.641 6.26437 59.6334 5.69006 59.9861 5.13088H59.9938ZM60.1242 7.26938C60.1778 7.20137 60.2699 7.1107 60.4846 7.10314C60.5153 7.10314 60.5459 7.10314 60.5766 7.10314C60.9447 7.10314 61.2131 7.20893 61.3128 7.40539C61.4125 7.60186 61.3511 7.88146 61.1518 8.11571C61.0444 8.24417 60.6916 8.58422 60.0091 8.59177C59.9554 8.31974 59.8711 7.59431 60.1242 7.26938ZM65.2545 4.13341C65.3925 4.13341 65.5306 4.16366 65.6916 4.22411C67.0566 4.73795 67.4171 5.55403 67.5091 5.87896C67.5704 6.0981 67.5168 6.34747 67.3711 6.54394C67.1487 6.83109 66.7269 6.98222 66.1901 6.97467C65.1548 6.96711 63.4447 7.11068 62.3097 7.3676C62.8082 6.87643 63.207 6.27192 63.5597 5.72785C64.1962 4.75306 64.6257 4.13341 65.2545 4.13341ZM57.8312 3.69515C57.8849 2.93194 58.4447 2.67502 59.365 2.32742C60.0628 2.06294 60.8527 1.76068 61.2361 1.0277C61.3972 0.710324 61.5659 0.702773 61.6195 0.702773C61.6195 0.702773 61.6272 0.702773 61.6349 0.702773C61.9876 0.702773 62.5168 1.17127 62.9309 1.85135C63.1763 2.25185 63.3833 2.75057 63.4984 3.23419C62.7622 2.7279 61.5429 2.54654 60.7376 2.87903C60.0705 3.15106 59.8251 3.77827 59.6257 4.28455C59.5567 4.47346 59.4877 4.64725 59.411 4.76816C59.0505 5.3349 58.9278 5.9772 59.0429 6.68752C58.391 6.09055 57.7315 5.44826 57.8466 3.69515H57.8312ZM58.6058 7.23915C58.8281 7.44318 59.0199 7.62452 59.1732 7.82099C58.8282 7.63208 58.391 7.45073 57.9002 7.23915C57.003 6.85377 55.5076 6.21901 55.5536 5.76562C55.5843 5.47847 56.7116 5.28956 57.2637 5.28956C57.5321 6.26435 58.1073 6.79332 58.5981 7.23915H58.6058ZM53.3834 5.06287C54.0352 4.60948 53.8358 3.92185 53.7055 3.46846C53.6288 3.21909 53.5521 2.9546 53.6365 2.84126C53.7822 2.65234 53.9202 2.54656 54.0506 2.539C54.3957 2.51633 54.9018 3.03772 55.3926 3.54401C55.753 3.91427 56.1518 4.31479 56.5966 4.64727C55.8604 4.73795 54.9325 4.9873 54.8634 5.69762C54.7944 6.41548 55.6226 6.952 56.6426 7.42806C54.5414 7.10313 52.9233 6.51372 52.7546 5.93187C52.6625 5.62205 53.115 5.25178 53.3834 5.05531V5.06287ZM52.4708 10.1408C52.1027 9.89904 51.7193 9.64212 51.5966 9.33986C51.4585 9.00737 51.5429 8.62954 51.8343 8.29706C52.2561 7.81344 53.1687 7.4054 54.4723 7.71521C55.9601 8.07037 57.1334 8.49354 57.9999 8.80335C58.1533 8.85625 58.2913 8.90913 58.414 8.95447C58.1226 10.1484 57.7929 10.8436 57.4324 11.025C57.1794 11.1534 56.8573 11.0325 56.3512 10.8361C55.5766 10.5262 54.5567 10.1182 53.3604 10.9569C53.1917 10.6245 52.8236 10.3827 52.4708 10.1484V10.1408ZM53.9432 12.4456C53.8435 12.3549 53.7438 12.2718 53.6441 12.1811C53.7515 12.1811 53.8742 12.1811 54.0352 12.1811C54.2269 12.1962 54.4033 12.2113 54.572 12.2189C55.0015 12.2491 55.3849 12.2793 55.7453 12.2793C56.3588 12.2793 56.8956 12.1887 57.4401 11.8788C57.3864 12.098 57.3481 12.3171 57.3251 12.5665C57.2791 13.0501 57.3404 13.5035 57.4861 13.8964C55.7837 14.0929 54.8864 13.2919 53.9355 12.438L53.9432 12.4456ZM58.0229 12.6421C58.0843 11.9997 58.299 11.4557 58.5291 10.8889C58.7361 10.3751 58.9508 9.83859 59.0812 9.17362C59.1886 9.20384 59.2883 9.21896 59.3726 9.22652C59.5797 9.2643 59.7791 9.28696 59.9708 9.28696C60.6533 9.28696 61.2438 9.04515 61.6502 8.59931C61.7576 8.9318 61.8496 9.35497 61.934 9.76302C62.1487 10.8058 62.3634 11.8788 63.0766 12.3398C63.3297 12.4985 63.322 12.6798 63.299 12.7932C63.1993 13.3146 62.3787 13.9947 61.0214 14.3952C60.983 14.4027 60.9524 14.4103 60.9217 14.4254C60.753 14.4707 60.5766 14.5161 60.3926 14.5538C59.5643 14.7201 58.9355 14.6143 58.5291 14.2516C58.1456 13.9115 57.9616 13.3297 58.0229 12.6496V12.6421ZM63.529 15.8082C63.3067 16.05 63.0459 16.1256 62.7622 16.0274C62.4094 15.914 62.0107 15.506 61.8189 14.841C63.0076 14.3725 63.8435 13.6546 63.9892 12.9141C64.0198 12.7479 64.0198 12.5816 63.9738 12.4305C64.7177 13.239 65.3925 14.2214 65.2392 14.7428C65.1471 15.0677 64.9401 15.1508 64.2652 15.3548C64.0122 15.4153 63.7591 15.5513 63.5214 15.8007L63.529 15.8082ZM67.9922 10.5036C67.9616 10.564 67.9155 10.632 67.7468 10.6396C66.8496 10.6623 65.9907 11.0098 65.2468 11.3197C64.5336 11.6144 63.8511 11.8939 63.4677 11.7126C63.3373 11.6521 63.23 11.5464 63.1379 11.3726C63.1379 11.3726 63.1379 11.3726 63.1379 11.365C63.1226 11.3348 63.0996 11.297 63.0843 11.2668C63.0459 11.1912 63.0152 11.1005 62.9846 11.0098C62.8389 10.6018 62.7315 10.1031 62.6395 9.63455C62.5245 9.08293 62.4171 8.55398 62.2407 8.13081C65.4232 7.26181 67.0183 8.62953 67.4401 9.09048C67.9692 9.65722 68.1303 10.2466 68.0152 10.5187L67.9922 10.5036Z" fill="#827D7A"/>
<path d="M42.4653 59.6209V59.5605H42.4423C42.3426 59.9307 42.1279 60.0894 41.7674 60.0894C41.292 60.0894 41.0312 59.8249 41.0312 59.3791C41.0312 58.9333 41.2997 58.631 41.8901 58.3212L42.4346 58.0416V57.7771H42.9024V59.5151C42.9024 59.7569 43.0174 59.8325 43.2858 59.8325H43.4546V60.2859L43.3319 60.4068C42.7107 60.4068 42.4576 60.1574 42.4576 59.6285L42.4653 59.6209ZM42.4423 59.1751V58.495L41.9822 58.7293C41.6217 58.9182 41.4607 59.0391 41.4607 59.2431C41.4607 59.4471 41.5757 59.5227 41.8825 59.5227C42.2889 59.5227 42.4423 59.4396 42.4423 59.1826V59.1751ZM41.6678 57.0744C41.6678 56.8704 41.7674 56.7872 41.9208 56.7872H41.9975C42.1509 56.7872 42.2582 56.8704 42.2582 57.0744C42.2582 57.2784 42.1509 57.3615 41.9975 57.3615H41.9208C41.7674 57.3615 41.6678 57.2709 41.6678 57.0744ZM42.3886 57.0744C42.3886 56.8704 42.4883 56.7872 42.6417 56.7872H42.7184C42.8717 56.7872 42.9791 56.8704 42.9791 57.0744C42.9791 57.2784 42.8717 57.3615 42.7184 57.3615H42.6417C42.4883 57.3615 42.3886 57.2709 42.3886 57.0744Z" fill="#827D7A"/>
<path d="M43.3357 59.9458L43.4584 59.8249H44.0106V60.2783L43.8879 60.3992H43.3357V59.9458Z" fill="#827D7A"/>
<path d="M43.8828 59.9458L44.0055 59.8248H44.5577V60.2782L44.435 60.3991H43.8828V59.9458Z" fill="#827D7A"/>
<path d="M44.0858 58.3137V57.951H44.3849V58.2155C44.3849 58.2986 44.4232 58.3364 44.4922 58.3364C44.5843 58.3364 44.6226 58.2759 44.6226 58.1323V57.8074H44.9217V58.0039C44.9217 58.1172 44.96 58.1626 45.0367 58.1626C45.1211 58.1626 45.1671 58.1021 45.1671 58.0114C45.1671 57.9283 45.1441 57.815 45.0981 57.6865L45.3895 57.6034C45.4431 57.747 45.4585 57.8905 45.4585 58.0039C45.4585 58.3364 45.2974 58.5328 45.029 58.5328C44.8833 58.5328 44.7683 58.4421 44.73 58.2835H44.707C44.684 58.563 44.5766 58.7066 44.3849 58.7066C44.1932 58.7066 44.0781 58.563 44.0781 58.3137H44.0858Z" fill="#827D7A"/>
<path d="M44.4297 59.9458L44.5524 59.8248H45.1045V60.2782L44.9818 60.3991H44.4297V59.9458Z" fill="#827D7A"/>
<path d="M44.9766 59.9458L45.0993 59.8248H45.6514V60.2782L45.5287 60.3991H44.9766V59.9458Z" fill="#827D7A"/>
<path d="M45.5312 59.9458L45.6539 59.8248H46.2061V60.2782L46.0834 60.3991H45.5312V59.9458Z" fill="#827D7A"/>
<path d="M46.0781 59.9458L46.2008 59.8248C46.4079 59.8248 46.5229 59.8173 46.6226 59.772C46.6149 59.7191 46.6073 59.6586 46.6073 59.5981C46.6073 59.2279 46.8527 58.9105 47.3358 58.6158L47.6195 58.442H48.141L48.5244 59.4546C48.6395 59.7493 48.7238 59.8248 48.9539 59.8248H49.0766V60.2782L48.9539 60.3991C48.5781 60.3991 48.3864 60.3009 48.2177 60.0289H48.187V60.3991H47.5582C47.0981 60.3991 46.8067 60.2405 46.684 59.9609H46.6533C46.5613 60.2556 46.3925 60.3991 46.0858 60.3991V59.9458H46.0781ZM47.4738 59.8248H48.118C48.095 59.7719 48.072 59.7115 48.049 59.6435L47.7806 58.9256L47.4738 59.0767C47.2054 59.2128 47.006 59.3564 47.006 59.5377C47.006 59.7417 47.1747 59.8248 47.4815 59.8248H47.4738Z" fill="#827D7A"/>
<path d="M48.9453 59.9458L49.068 59.8248H49.229C49.5128 59.8248 49.6585 59.6964 49.6585 59.4244V56.6587H50.134V59.4244C50.134 59.6964 50.2643 59.8248 50.5404 59.8248H50.7168V60.2782L50.5941 60.3991C50.0803 60.3991 49.7965 60.2178 49.7045 59.8248H49.6738C49.5895 60.2404 49.3901 60.3991 48.9453 60.3991V59.9458Z" fill="#827D7A"/>
<path d="M50.6016 59.9458L50.7243 59.8248H50.9006C51.1997 59.8248 51.3071 59.6964 51.3071 59.4244V56.6587H51.7902V59.4244C51.7902 60.0893 51.5371 60.3916 50.9006 60.3916H50.6016V59.9382V59.9458Z" fill="#827D7A"/>
<path d="M52.4921 56.6587H52.9676V60.3991H52.4921V56.6587Z" fill="#827D7A"/>
<path d="M54.7264 60.301C54.7264 59.9987 54.8184 59.6133 54.9641 59.2657L55.3553 59.3791C55.2249 59.6511 55.1329 59.9685 55.1329 60.1952C55.1329 60.7091 55.5316 60.9962 56.1911 60.9962H56.5439C57.2187 60.9962 57.6635 60.777 57.7709 60.3917L56.6206 60.233V59.6511L57.2648 59.7494C57.6175 59.8023 57.9243 59.8325 58.139 59.8325V60.0819L58.2157 60.1801C58.2157 61.0869 57.5255 61.6159 56.3675 61.6159C55.3322 61.6159 54.7188 61.1246 54.7188 60.301H54.7264Z" fill="#827D7A"/>
<path d="M58.0234 59.9458L58.1461 59.8248H58.6983V60.2782L58.5756 60.3991H58.0234V59.9458Z" fill="#827D7A"/>
<path d="M58.5625 59.9458L58.6852 59.8248H59.2373V60.2782L59.1146 60.3991H58.5625V59.9458Z" fill="#827D7A"/>
<path d="M59.1172 59.9458L59.2399 59.8248H59.792V60.2782L59.6693 60.3991H59.1172V59.9458Z" fill="#827D7A"/>
<path d="M59.6639 59.9458L59.7866 59.8248H59.9477C60.2314 59.8248 60.3694 59.6964 60.3694 59.4244V56.6587H60.8449V59.4244C60.8449 59.6964 60.9753 59.8248 61.2513 59.8248H61.4277V60.2782L61.305 60.3991C60.7912 60.3991 60.5075 60.2178 60.4154 59.8248H60.3848C60.3004 60.2404 60.101 60.3991 59.6562 60.3991V59.9458H59.6639Z" fill="#827D7A"/>
<path d="M61.3124 59.9457L61.4351 59.8248H61.6881C62.363 59.8248 62.7541 59.787 63.4366 59.4621L63.7893 59.2959V59.2732L62.9995 59.107L62.0639 58.8802V59.2883H61.6038V58.9029C61.6038 58.5478 61.7955 58.3589 62.1252 58.3589C62.2096 58.3589 62.3016 58.374 62.57 58.442L63.705 58.7291C64.0347 58.8123 64.3185 58.8576 64.5485 58.8576H64.6406V59.4319H64.2648V59.4545C64.2648 59.7341 64.3875 59.8324 64.6789 59.8324H64.8476V60.2858L64.7249 60.4067C64.1574 60.4067 63.9044 60.1875 63.866 59.6661L63.6053 59.8248C62.7311 60.3613 62.3093 60.4067 61.6805 60.4067H61.3047V59.9533L61.3124 59.9457Z" fill="#827D7A"/>
<path d="M64.7342 59.9458L64.8569 59.8248H65.0256C65.3094 59.8248 65.4474 59.6964 65.4474 59.4244V58.6536H65.8922V59.4244C65.8922 59.6964 66.0226 59.8248 66.291 59.8248H66.4827V60.2782L66.3523 60.3991C65.8462 60.3991 65.5778 60.2178 65.4934 59.8248H65.4628C65.3784 60.2404 65.179 60.3991 64.7266 60.3991V59.9458H64.7342ZM65.0026 57.8601C65.0026 57.6561 65.1023 57.573 65.2557 57.573H65.3324C65.4858 57.573 65.5931 57.6561 65.5931 57.8601C65.5931 58.0642 65.4858 58.1473 65.3324 58.1473H65.2557C65.1023 58.1473 65.0026 58.0566 65.0026 57.8601ZM65.7235 57.8601C65.7235 57.6561 65.8232 57.573 65.9766 57.573H66.0532C66.2066 57.573 66.314 57.6561 66.314 57.8601C66.314 58.0642 66.2066 58.1473 66.0532 58.1473H65.9766C65.8232 58.1473 65.7235 58.0566 65.7235 57.8601Z" fill="#827D7A"/>
<path d="M66.3672 59.9458L66.4899 59.8249H66.5972C67.065 59.8249 67.2337 59.7418 67.2337 59.4622C67.2337 59.3488 67.2184 59.1826 67.1724 58.8954L67.088 58.4571L67.5328 58.3892L67.6018 58.8275C67.6402 59.0919 67.6632 59.311 67.6632 59.4622C67.6632 60.0969 67.3181 60.3992 66.5972 60.3992H66.3672V59.9458ZM66.9347 61.1624C66.9347 60.9584 67.0344 60.8752 67.1877 60.8752H67.2644C67.4178 60.8752 67.5252 60.9584 67.5252 61.1624C67.5252 61.3664 67.4178 61.4495 67.2644 61.4495H67.1877C67.0344 61.4495 66.9347 61.3589 66.9347 61.1624Z" fill="#827D7A"/>
<path d="M69.4219 59.5075V56.6587H69.8973V59.4621C69.8973 59.7417 70.0277 59.8248 70.3268 59.8248H70.4955V60.2782L70.3651 60.3991C69.6903 60.3991 69.4219 60.1498 69.4219 59.5075Z" fill="#827D7A"/>
<path d="M70.3828 59.9458L70.5055 59.8248H71.0577V60.2782L70.935 60.3991H70.3828V59.9458Z" fill="#827D7A"/>
<path d="M70.9297 59.9458L71.0524 59.8248H71.6045V60.2782L71.4818 60.3991H70.9297V59.9458Z" fill="#827D7A"/>
<path d="M71.4766 59.9458L71.5993 59.8248H72.1514V60.2782L72.0287 60.3991H71.4766V59.9458Z" fill="#827D7A"/>
<path d="M71.6795 58.3137V57.951H71.9786V58.2155C71.9786 58.2986 72.017 58.3364 72.086 58.3364C72.178 58.3364 72.2164 58.2759 72.2164 58.1323V57.8074H72.5154V58.0039C72.5154 58.1172 72.5538 58.1626 72.6305 58.1626C72.7148 58.1626 72.7608 58.1021 72.7608 58.0114C72.7608 57.9283 72.7378 57.815 72.6918 57.6865L72.9832 57.6034C73.0369 57.747 73.0522 57.8905 73.0522 58.0039C73.0522 58.3364 72.8912 58.5328 72.6228 58.5328C72.4771 58.5328 72.3621 58.4421 72.3237 58.2835H72.3007C72.2777 58.563 72.1703 58.7066 71.9786 58.7066C71.7869 58.7066 71.6719 58.563 71.6719 58.3137H71.6795Z" fill="#827D7A"/>
<path d="M72.0234 59.9458L72.1461 59.8248H72.6983V60.2782L72.5756 60.3991H72.0234V59.9458Z" fill="#827D7A"/>
<path d="M72.5781 59.9458L72.7008 59.8248H73.253V60.2782L73.1303 60.3991H72.5781V59.9458Z" fill="#827D7A"/>
<path d="M73.1172 59.9458L73.2399 59.8248H73.792V60.2782L73.6693 60.3991H73.1172V59.9458Z" fill="#827D7A"/>
<path d="M73.6719 59.9458L73.7946 59.8248H74.3467V60.2782L74.224 60.3991H73.6719V59.9458Z" fill="#827D7A"/>
<path d="M74.2186 59.9458L74.3413 59.8248H74.51C74.7938 59.8248 74.9318 59.6964 74.9318 59.4244V58.6536H75.3766V59.4244C75.3766 59.6964 75.5069 59.8248 75.7753 59.8248H75.9671V60.2782L75.8367 60.3991C75.3306 60.3991 75.0622 60.2178 74.9778 59.8248H74.9471C74.8628 60.2404 74.6634 60.3991 74.2109 60.3991V59.9458H74.2186ZM74.8628 57.8601C74.8628 57.6561 74.9625 57.573 75.1158 57.573H75.1925C75.3459 57.573 75.4533 57.6561 75.4533 57.8601C75.4533 58.0642 75.3459 58.1473 75.1925 58.1473H75.1158C74.9625 58.1473 74.8628 58.0566 74.8628 57.8601Z" fill="#827D7A"/>
<path d="M75.8594 59.9459L75.9821 59.8249H76.5266V59.8023C76.3272 59.6285 76.1891 59.3413 76.1891 59.0315C76.1891 58.4043 76.6493 57.9434 77.2474 57.9434C77.6999 57.9434 78.0143 58.1398 78.2137 58.4723L77.8379 58.8426C77.6769 58.6159 77.4775 58.5177 77.2091 58.5177C76.8333 58.5177 76.6109 58.7217 76.6109 59.0391C76.6109 59.4018 76.9407 59.6511 77.4391 59.6511C77.6002 59.6511 77.7842 59.6285 77.9453 59.5832L78.3977 59.4698L78.5357 59.9912L77.8302 60.1877C77.2014 60.369 76.7796 60.4144 75.867 60.4144V59.961L75.8594 59.9459Z" fill="#827D7A"/>
</svg>
