<svg width="90" height="77" viewBox="0 0 90 77" fill="none" xmlns="http://www.w3.org/2000/svg">
<path d="M25.2759 28.1954L23.7422 20.2912L27.5075 19.5782L28.4584 24.4026C37.0244 24.4026 41.3495 24.395 41.4569 24.3799C41.5566 24.3647 41.6716 24.3419 41.7943 24.3116C42.5075 24.1143 43.0059 23.7654 43.2896 23.2799C43.5734 22.7869 43.7191 22.3166 43.7191 21.8539C43.7191 21.6415 43.6884 21.4063 43.6271 21.1636L42.2544 16.1344L47.5534 14.7311L48.5504 18.3873L46.9476 18.8272L47.3157 20.185C47.4537 20.7691 47.5228 21.3456 47.5228 21.907C47.5228 23.0069 47.239 24.0537 46.6639 25.0322C45.8127 26.4886 44.509 27.4748 42.7605 27.9982C42.1854 28.1347 41.6409 28.2029 41.1118 28.2029H25.2682L25.2759 28.1954ZM34.4477 34.0514C33.9952 33.7176 33.7191 33.2549 33.6118 32.6708L33.5888 32.3523C33.5888 31.8744 33.7268 31.4572 34.0106 31.0855C34.348 30.6379 34.8158 30.3648 35.4063 30.2586L35.6823 30.2359C36.1808 30.2359 36.6179 30.3724 37.009 30.6531C37.4614 30.9869 37.7375 31.4572 37.8449 32.0564L37.8679 32.3295C37.8679 32.8074 37.7299 33.2322 37.4461 33.619C37.1087 34.0666 36.6333 34.3397 36.0274 34.4459L35.7054 34.4686C35.2376 34.4686 34.8234 34.3321 34.4477 34.0514Z" fill="#827D7A"/>
<path d="M49.9141 28.1955L50.3665 3.74726C50.3895 2.53357 51.1027 1.44128 52.2147 0.925459L54.2086 0L53.8404 24.3951H56.9079V28.1879H49.9141V28.1955Z" fill="#827D7A"/>
<path d="M56.9061 24.4025C57.8187 24.4025 58.5702 23.9702 59.1607 23.113C59.3908 22.7337 59.5058 22.3089 59.5058 21.8462C59.5058 21.6338 59.4751 21.3986 59.4138 21.1559L58.0411 16.1267L63.3401 14.7234L64.3371 18.3796L62.7343 18.8195L63.1024 20.1774C63.2405 20.7615 63.3095 21.3228 63.3095 21.8765C63.3095 22.9916 63.0258 24.0384 62.4506 25.0018C61.5994 26.4734 60.2957 27.4671 58.5472 27.9905C57.9721 28.127 57.4276 28.1953 56.8984 28.1953V24.4025H56.9061ZM58.3478 34.0513C57.8954 33.7176 57.6193 33.2548 57.512 32.6707L57.4889 32.3522C57.4889 31.8743 57.627 31.4571 57.9107 31.0854C58.2481 30.6378 58.7159 30.3647 59.3064 30.2585L59.5825 30.2358C60.0809 30.2358 60.5104 30.3723 60.8862 30.653C61.354 30.9868 61.6377 31.4571 61.7451 32.0563L61.7681 32.3294C61.7681 32.8073 61.6301 33.2321 61.3463 33.6189C61.0089 34.0665 60.5334 34.3396 59.9276 34.4458L59.6055 34.4685C59.1377 34.4685 58.7236 34.332 58.3478 34.0513Z" fill="#827D7A"/>
<path d="M6.6104 65.2886C4.21777 64.5983 2.43862 63.2481 1.27298 61.2379C0.498444 59.8877 0.115002 58.454 0.115002 56.9445C0.115002 56.1935 0.207015 55.435 0.391063 54.6461L1.68707 49.9127L0 49.4727L1.15793 45.0959L7.2699 46.7116L4.80823 55.7915C4.71621 56.1935 4.6702 56.5728 4.6702 56.9369C4.6702 57.6651 4.85427 58.3402 5.22237 58.9623C5.77452 59.9256 6.62574 60.578 7.76838 60.9042C8.17482 60.9952 8.55821 61.0407 8.92631 61.0407C9.6625 61.0407 10.345 60.8586 10.9739 60.4945C11.9478 59.9483 12.6073 59.1063 12.9371 57.9761C12.9524 57.9382 12.9754 57.8699 12.9907 57.7561C13.0061 57.6499 13.0367 57.5134 13.0751 57.3465C13.1134 57.1797 13.1288 57.0355 13.1288 56.9066L13.0981 56.8762V48.2894H17.6303L17.6609 54.6309C17.6609 55.2302 17.8757 55.746 18.2975 56.1632C18.7192 56.5804 19.2407 56.7928 19.8466 56.7928C20.4524 56.7928 20.9508 56.5804 21.3803 56.1632C21.8097 55.746 22.0321 55.2302 22.0321 54.6309V51.3767H26.595V54.6309C26.595 55.1088 26.7637 55.5032 27.1088 55.8218C27.4462 56.1404 27.845 56.2997 28.2821 56.2997C28.7192 56.2997 29.0873 56.1328 29.4324 55.7915C29.7698 55.4577 29.9462 55.0784 29.9462 54.6536C29.9462 54.5095 29.9308 54.3654 29.8925 54.2137L28.2591 48.1453L32.6532 46.9999L34.3097 53.0455C34.44 53.6144 34.5014 54.1378 34.5014 54.6309C34.5014 56.3452 33.8956 57.8017 32.6762 59.0078C31.4569 60.2139 29.9922 60.8131 28.2821 60.8131C26.8251 60.8131 25.5444 60.3883 24.4401 59.5312C23.006 60.7145 21.4876 61.3062 19.9079 61.3062C18.9109 61.3062 17.8834 61.0786 16.8097 60.6235C15.9969 62.262 14.8159 63.5211 13.2745 64.4011C11.9095 65.1672 10.4601 65.5465 8.93399 65.5465C8.17479 65.5465 7.40027 65.4554 6.6104 65.2734V65.2886ZM18.7499 47.7281C18.1977 47.326 17.8527 46.7799 17.73 46.0896L17.6993 45.7634C17.6993 45.1793 17.8757 44.6635 18.2207 44.2008C18.6042 43.6698 19.164 43.3436 19.8772 43.2147L20.207 43.1843C20.7974 43.1843 21.3113 43.3512 21.756 43.6774C22.2929 44.0794 22.6226 44.6332 22.753 45.3462L22.7836 45.7255C22.7836 46.2716 22.6149 46.7647 22.2852 47.2047C21.8787 47.7357 21.3266 48.0618 20.6287 48.1908L20.2453 48.2211C19.6931 48.2211 19.1947 48.0543 18.7499 47.7281ZM21.1809 41.9555C20.6441 41.5534 20.3143 41.0073 20.184 40.317L20.1533 39.9377C20.1533 39.3916 20.322 38.8985 20.6518 38.4585C21.1502 37.7834 21.8327 37.4496 22.6993 37.4496C23.2514 37.4496 23.7499 37.6165 24.1947 37.9427C24.7468 38.322 25.0919 38.8757 25.2146 39.5812L25.2453 39.9074C25.2453 40.4763 25.0689 40.9845 24.7238 41.4396C24.2407 42.1148 23.5659 42.4485 22.6763 42.4485C22.1242 42.4485 21.6257 42.2816 21.1809 41.9555ZM24.5014 46.8785C23.9646 46.4764 23.6348 45.9303 23.5045 45.24L23.4738 44.8607C23.4738 44.3146 23.6425 43.8215 23.9723 43.3815C24.3787 42.8354 24.9309 42.494 25.6287 42.3727L25.9585 42.3423C26.549 42.3423 27.0704 42.5092 27.5382 42.8354C28.075 43.2374 28.4048 43.7912 28.5351 44.5042L28.5658 44.8835C28.5658 45.4297 28.3971 45.9227 28.0674 46.3626C27.6609 46.8936 27.1011 47.2199 26.3802 47.3488L25.9968 47.3791C25.4447 47.3791 24.9462 47.2122 24.5014 46.8861V46.8785Z" fill="#827D7A"/>
<path d="M50.41 59.9787L46.8134 65.7513L42.9407 63.3998L45.0726 59.9559C42.8257 59.736 40.9622 58.8408 39.4898 57.263C38.0174 55.6853 37.2812 53.8116 37.2812 51.6422C37.2812 49.3286 38.1095 47.3564 39.7582 45.7331C41.407 44.1098 43.3932 43.2981 45.7168 43.2981C48.0404 43.2981 50.0266 44.1098 51.6754 45.7331C53.3241 47.3564 54.1524 49.3286 54.1524 51.6422C54.1524 53.0303 53.8379 54.3047 53.2091 55.4729H56.8901V59.9863H50.4177L50.41 59.9787ZM48.4468 54.335C49.206 53.5765 49.5818 52.6814 49.5818 51.6422C49.5818 50.603 49.206 49.6851 48.4468 48.9341C47.6876 48.1832 46.7751 47.8115 45.7091 47.8115C44.6432 47.8115 43.7306 48.1832 42.9714 48.9341C42.2122 49.6851 41.8364 50.5878 41.8364 51.6422C41.8364 52.6966 42.2122 53.5993 42.9714 54.3502C43.7306 55.1012 44.6432 55.4729 45.7091 55.4729C46.7751 55.4729 47.6876 55.0936 48.4468 54.335Z" fill="#827D7A"/>
<path d="M62.6494 59.463V59.9788H56.8672V55.4654H57.9715L57.5267 38.7848L62.0896 38.6786L62.473 53.258C62.657 53.918 63.0175 54.4338 63.5543 54.8206C64.1064 55.2606 64.7352 55.4806 65.4331 55.4806V59.994C64.4362 59.994 63.5083 59.8195 62.6417 59.4782L62.6494 59.463Z" fill="#827D7A"/>
<path d="M65.4453 59.9787V55.4653H73.7428V59.9787H65.4453Z" fill="#827D7A"/>
<path d="M73.7411 59.9786V55.4652H74.2089C73.58 54.1681 73.2656 52.8862 73.2656 51.6118C73.2656 50.8305 73.373 50.0492 73.5954 49.2906C74.2012 47.2274 75.4972 45.604 77.468 44.4207C78.8331 43.6546 80.2441 43.2753 81.7012 43.2753C83.5647 43.2753 85.2671 43.8594 86.8162 45.0275C87.6981 45.6875 88.4189 46.4991 88.9711 47.4625L85.0447 49.7306C84.784 49.2754 84.4542 48.9038 84.0478 48.6079C83.2733 48.0618 82.4834 47.7887 81.6705 47.7887C81.0417 47.7887 80.3975 47.9631 79.738 48.3045C78.8178 48.8734 78.2656 49.4878 78.0816 50.1478C77.8975 50.8153 77.8055 51.3084 77.8055 51.6345C77.8055 52.2717 77.9818 52.9089 78.3269 53.5461C78.8407 54.4184 79.6229 55.0177 80.6736 55.3211C80.988 55.4121 81.3101 55.4576 81.6398 55.4576H89.5462V59.971H73.7334L73.7411 59.9786Z" fill="#827D7A"/>
<path d="M13.2408 37.4194C10.9402 36.9339 10.4264 37.2677 10.5261 39.2096C10.6105 40.9467 10.8329 42.661 11.0016 44.5346C9.90495 44.2995 9.45248 43.723 8.97703 43.2148C7.97243 42.1528 6.9755 41.1894 4.90496 41.7128C4.51385 41.8114 4.02305 41.6901 3.64728 41.5611C2.72704 41.2501 2.60435 40.4233 2.79607 39.7558C3.01079 39.0048 3.96937 39.0275 4.70556 39.1034C6.18562 39.2627 7.15958 40.0516 8.14884 40.8101C8.61663 41.1666 9.08438 41.5232 9.78223 42.0617C9.78223 40.1578 9.20709 38.5648 9.60586 36.8657C9.75157 36.2361 9.93563 35.523 10.8175 35.2955C11.7531 35.0527 12.5353 35.3561 13.1335 35.872C13.5936 36.274 13.4632 36.7974 13.2408 37.4118V37.4194Z" fill="#827D7A"/>
<path d="M74.3176 38.9212H74.3406C74.8697 38.595 75.5446 38.193 76.3728 37.7227C77.201 37.2524 78.0906 36.7442 79.0338 36.198C79.9848 35.6519 80.9663 35.0981 81.9709 34.5368C82.9832 33.9755 83.9341 33.452 84.8237 32.959L83.6043 36.0008C81.7792 37.0021 79.9234 38.0337 78.0292 39.1032C76.1351 40.1728 74.4326 41.2651 72.9219 42.3726L74.3099 38.9061L74.3176 38.9212Z" fill="#827D7A"/>
<path d="M45.194 37.1842C44.7952 37.0249 44.4194 36.8504 44.0743 36.6684C43.7292 36.4863 43.4608 36.2512 43.2768 35.9553C43.1464 35.7809 43.0697 35.5912 43.0391 35.3712C43.0161 35.2347 43.0161 35.083 43.0391 34.9313C43.0697 34.5444 43.2691 34.059 43.6295 33.4825C43.9899 32.9287 44.3734 32.5343 44.7875 32.2991C44.9792 32.1853 45.1633 32.1095 45.3397 32.0867C45.5314 32.0564 45.7154 32.0867 45.8995 32.1626C46.2215 32.3067 46.4516 32.6632 46.5973 33.217C46.628 33.3156 46.6433 33.4142 46.6587 33.5128C46.7353 34.0514 46.6893 34.772 46.5206 35.6671C46.6587 35.7354 46.7813 35.8188 46.8887 35.9098C46.9961 36.0009 47.0651 36.1298 47.1035 36.2967V36.3346C47.1341 36.4863 47.1111 36.676 47.0574 36.9035C47.0038 37.1539 46.8887 37.4649 46.7277 37.8365C46.605 37.7228 46.4899 37.6469 46.3672 37.6014C46.2522 37.5559 46.1142 37.4952 45.9608 37.4269C45.5774 38.1248 45.1863 38.7089 44.7722 39.1944C44.3581 39.6799 43.8903 40.1046 43.3688 40.4839C42.8473 40.8632 42.2722 41.2045 41.6587 41.5307C41.0375 41.8493 40.3397 42.1679 39.5498 42.4865L39.2891 42.5623C39.2891 42.5623 39.3964 42.4107 39.6342 42.2286C39.8642 42.0314 40.1633 41.7735 40.5391 41.4549C40.9072 41.1363 41.3289 40.7873 41.7891 40.3929C42.2492 39.9984 42.7093 39.604 43.1617 39.2095C43.6142 38.8151 44.0207 38.4358 44.3888 38.0945C44.7569 37.7455 45.0329 37.4497 45.2169 37.2069L45.194 37.1842ZM45.7154 35.4168C45.7308 35.0906 45.7231 34.8251 45.6924 34.6127C45.6771 34.4989 45.6541 34.4003 45.6311 34.3168C45.5467 34.0741 45.424 33.9073 45.2706 33.8314C45.1479 33.7707 45.0176 33.7555 44.8872 33.7707L44.7952 33.7859C44.6341 33.8314 44.4884 33.9148 44.3734 34.021C44.2507 34.1272 44.174 34.2486 44.1434 34.3775C44.128 34.4306 44.1203 34.4761 44.128 34.5141C44.1433 34.6051 44.1894 34.6886 44.2814 34.7644C44.4884 34.9313 44.7108 35.0527 44.9562 35.1513C45.194 35.2423 45.4547 35.3333 45.7308 35.4243L45.7154 35.4168Z" fill="#827D7A"/>
<path d="M14.8438 76.4848V72.6313H15.8713C16.063 72.6313 16.2318 72.6465 16.3852 72.6845C16.5385 72.7224 16.6689 72.7755 16.7763 72.8589C16.8836 72.9423 16.968 73.041 17.0293 73.1699C17.0907 73.2989 17.1213 73.4506 17.1213 73.6326C17.1213 73.7313 17.1137 73.8299 17.0907 73.9285C17.0677 74.0271 17.037 74.1105 16.991 74.194C16.945 74.2774 16.8836 74.3457 16.8146 74.4064C16.7379 74.4671 16.6535 74.5126 16.5462 74.5429C16.6382 74.5581 16.7303 74.5884 16.8223 74.6339C16.9143 74.6795 16.9986 74.7325 17.0676 74.8084C17.1367 74.8842 17.198 74.9677 17.2441 75.0739C17.2901 75.1801 17.313 75.3091 17.313 75.4532C17.313 75.6352 17.2747 75.7945 17.2057 75.9235C17.1367 76.0524 17.037 76.1586 16.922 76.2497C16.8069 76.3331 16.6689 76.3938 16.5155 76.4317C16.3621 76.4696 16.2011 76.4924 16.0401 76.4924H14.8514L14.8438 76.4848ZM15.4343 73.1623V74.3002H15.9634C16.1551 74.3002 16.3008 74.2471 16.4005 74.1333C16.5002 74.0195 16.5462 73.883 16.5462 73.7161C16.5462 73.5264 16.4848 73.3823 16.3698 73.2989C16.2548 73.2079 16.1014 73.1699 15.902 73.1699H15.4343V73.1623ZM15.4343 74.7933V75.9538H15.9787C16.0861 75.9538 16.1781 75.9387 16.2701 75.9159C16.3621 75.8931 16.4388 75.8552 16.5078 75.8097C16.5769 75.7642 16.6306 75.7035 16.6689 75.6276C16.7072 75.5518 16.7303 75.4683 16.7303 75.3697C16.7303 75.2635 16.7072 75.1725 16.6612 75.0966C16.6152 75.0208 16.5539 74.9601 16.4772 74.9222C16.4005 74.8767 16.3161 74.8463 16.2164 74.8236C16.1167 74.8008 16.0171 74.7933 15.9097 74.7933H15.4343Z" fill="#827D7A"/>
<path d="M23.6258 76.4849C23.6104 76.447 23.5797 76.3863 23.549 76.318C23.5184 76.2422 23.4801 76.1587 23.4417 76.0601C23.4034 75.9615 23.3573 75.8553 23.3113 75.7416C23.2653 75.6278 23.2116 75.5064 23.1656 75.385H21.7929L21.3328 76.4925H20.75L22.4831 72.4646C22.5138 72.5253 22.5675 72.6618 22.6595 72.8742C22.7438 73.079 22.8512 73.3218 22.9662 73.6024C23.0812 73.8831 23.2117 74.1713 23.342 74.4899C23.4724 74.8009 23.6028 75.0967 23.7255 75.3698C23.8482 75.6429 23.9478 75.8857 24.0398 76.0981C24.1242 76.3029 24.1855 76.4394 24.2162 76.5077H23.6334L23.6258 76.4849ZM21.9923 74.892H22.9662C22.9202 74.7782 22.8742 74.6644 22.8282 74.5582C22.7822 74.452 22.7362 74.3534 22.7055 74.2624C22.6672 74.1713 22.6365 74.0955 22.6058 74.0272C22.5751 73.9589 22.5521 73.9058 22.5444 73.8679C22.5444 73.8679 22.5291 73.8376 22.5215 73.7921C22.5061 73.7466 22.4984 73.7086 22.4908 73.6783C22.4908 73.7162 22.4754 73.7541 22.4601 73.7921C22.4448 73.8376 22.4371 73.8603 22.4371 73.8679L22.0076 74.8995L21.9923 74.892Z" fill="#827D7A"/>
<path d="M27.875 76.4848V72.6313H28.9026C29.0943 72.6313 29.263 72.6465 29.4164 72.6845C29.5698 72.7224 29.7002 72.7755 29.8075 72.8589C29.9149 72.9423 29.9992 73.041 30.0606 73.1699C30.1219 73.2989 30.1526 73.4506 30.1526 73.6326C30.1526 73.7313 30.1449 73.8299 30.1219 73.9285C30.0989 74.0271 30.0682 74.1105 30.0222 74.194C29.9762 74.2774 29.9149 74.3457 29.8459 74.4064C29.7692 74.4671 29.6848 74.5126 29.5775 74.5429C29.6695 74.5581 29.7615 74.5884 29.8535 74.6339C29.9456 74.6795 30.0299 74.7325 30.0989 74.8084C30.168 74.8842 30.2293 74.9677 30.2753 75.0739C30.3213 75.1801 30.3443 75.3091 30.3443 75.4532C30.3443 75.6352 30.306 75.7945 30.237 75.9235C30.1679 76.0524 30.0683 76.1586 29.9532 76.2497C29.8382 76.3331 29.7001 76.3938 29.5468 76.4317C29.3934 76.4696 29.2324 76.4924 29.0713 76.4924H27.8827L27.875 76.4848ZM28.4655 73.1623V74.3002H28.9946C29.1864 74.3002 29.3321 74.2471 29.4318 74.1333C29.5315 74.0195 29.5775 73.883 29.5775 73.7161C29.5775 73.5264 29.5161 73.3823 29.4011 73.2989C29.286 73.2079 29.1327 73.1699 28.9333 73.1699H28.4655V73.1623ZM28.4655 74.7933V75.9538H29.01C29.1173 75.9538 29.2093 75.9387 29.3014 75.9159C29.3934 75.8931 29.4701 75.8552 29.5391 75.8097C29.6081 75.7642 29.6618 75.7035 29.7002 75.6276C29.7385 75.5518 29.7615 75.4683 29.7615 75.3697C29.7615 75.2635 29.7385 75.1725 29.6925 75.0966C29.6465 75.0208 29.5851 74.9601 29.5084 74.9222C29.4317 74.8767 29.3474 74.8463 29.2477 74.8236C29.148 74.8008 29.0483 74.7933 28.941 74.7933H28.4655Z" fill="#827D7A"/>
<path d="M40.5476 76.4849C40.5323 76.447 40.5016 76.3863 40.4709 76.318C40.4402 76.2422 40.4019 76.1587 40.3636 76.0601C40.3252 75.9615 40.2792 75.8553 40.2332 75.7416C40.1872 75.6278 40.1335 75.5064 40.0875 75.385H38.7148L38.2547 76.4925H37.6719L39.405 72.4646C39.4357 72.5253 39.4893 72.6618 39.5814 72.8742C39.6657 73.079 39.7731 73.3218 39.8881 73.6024C40.0031 73.8831 40.1335 74.1713 40.2639 74.4899C40.3943 74.8009 40.5246 75.0967 40.6473 75.3698C40.77 75.6429 40.8697 75.8857 40.9617 76.0981C41.0461 76.3029 41.1074 76.4394 41.1381 76.5077H40.5553L40.5476 76.4849ZM38.9142 74.892H39.8881C39.8421 74.7782 39.7961 74.6644 39.7501 74.5582C39.704 74.452 39.6581 74.3534 39.6274 74.2624C39.589 74.1713 39.5584 74.0955 39.5277 74.0272C39.497 73.9589 39.474 73.9058 39.4663 73.8679C39.4663 73.8679 39.451 73.8376 39.4433 73.7921C39.428 73.7466 39.4203 73.7086 39.4126 73.6783C39.4126 73.7162 39.3973 73.7541 39.382 73.7921C39.3666 73.8376 39.359 73.8603 39.359 73.8679L38.9295 74.8995L38.9142 74.892Z" fill="#827D7A"/>
<path d="M44.7969 76.4848V72.6389H45.3874V75.9386H47.3199V76.4924H44.7969V76.4848Z" fill="#827D7A"/>
<path d="M50.7734 74.5582C50.7734 74.2927 50.8271 74.0424 50.9268 73.7997C51.0342 73.5645 51.1722 73.3521 51.3563 73.17C51.5403 72.988 51.7474 72.8439 51.9928 72.7453C52.2305 72.6391 52.4912 72.5859 52.7596 72.5859C53.0281 72.5859 53.2888 72.6391 53.5265 72.7453C53.7642 72.8514 53.979 72.9956 54.163 73.17C54.3471 73.3445 54.4851 73.5569 54.5925 73.7997C54.6998 74.0348 54.7535 74.2927 54.7535 74.5582C54.7535 74.8237 54.6998 75.0816 54.5925 75.3168C54.4851 75.5519 54.3471 75.7643 54.163 75.9463C53.979 76.1284 53.7719 76.2649 53.5265 76.3711C53.2888 76.4773 53.0281 76.5228 52.7596 76.5228C52.4912 76.5228 52.2305 76.4697 51.9928 76.3711C51.755 76.2649 51.5403 76.1284 51.3563 75.9463C51.1722 75.7643 51.0342 75.5595 50.9268 75.3168C50.8195 75.0816 50.7734 74.8237 50.7734 74.5582ZM51.3639 74.5658C51.3639 74.763 51.4023 74.9451 51.4713 75.1119C51.548 75.2864 51.6477 75.4305 51.778 75.5595C51.9084 75.6884 52.0541 75.787 52.2305 75.8629C52.3992 75.9387 52.5833 75.9767 52.775 75.9767C52.9667 75.9767 53.1507 75.9387 53.3194 75.8629C53.4882 75.787 53.6415 75.6884 53.7642 75.5595C53.8946 75.4305 53.9943 75.2788 54.0633 75.1119C54.14 74.9375 54.1707 74.7554 54.1707 74.5582C54.1707 74.361 54.1324 74.1789 54.0633 74.012C53.9866 73.8376 53.8869 73.6935 53.7566 73.5645C53.6262 73.4355 53.4805 73.3369 53.3118 73.2611C53.1431 73.1852 52.959 73.1473 52.7673 73.1473C52.5756 73.1473 52.3915 73.1852 52.2228 73.2611C52.0541 73.3369 51.9007 73.4355 51.778 73.5645C51.6477 73.6935 51.548 73.8451 51.479 74.012C51.4023 74.1865 51.3716 74.3685 51.3716 74.5658H51.3639Z" fill="#827D7A"/>
<path d="M60.0582 76.5227C59.8512 76.5227 59.6594 76.4924 59.4754 76.4241C59.2913 76.3558 59.1379 76.2648 59.0076 76.1434C58.8772 76.0221 58.7699 75.8779 58.6932 75.7035C58.6165 75.529 58.5781 75.3394 58.5781 75.127V72.6389H59.1686V75.1118C59.1686 75.2332 59.1917 75.347 59.2377 75.4532C59.2837 75.5594 59.345 75.6504 59.4217 75.7338C59.4984 75.8097 59.5981 75.8779 59.7054 75.9159C59.8128 75.9614 59.9279 75.9842 60.0582 75.9842C60.1886 75.9842 60.3036 75.9614 60.411 75.9159C60.5183 75.8704 60.618 75.8097 60.6947 75.7338C60.7714 75.658 60.8404 75.5594 60.8864 75.4532C60.9324 75.347 60.9554 75.2332 60.9554 75.1118V72.6389H61.5459V75.127C61.5459 75.3394 61.5076 75.529 61.4309 75.7035C61.3542 75.8779 61.2468 76.0221 61.1165 76.1434C60.9861 76.2648 60.8251 76.3634 60.641 76.4241C60.457 76.4924 60.2653 76.5227 60.0582 76.5227Z" fill="#827D7A"/>
<path d="M67.8737 72.8438L67.6667 73.3141C67.5209 73.261 67.3752 73.2155 67.2295 73.1851C67.0838 73.1548 66.9458 73.1396 66.8154 73.1396C66.5931 73.1396 66.409 73.1851 66.2786 73.2761C66.1483 73.3672 66.0792 73.4885 66.0792 73.6251C66.0792 73.7464 66.1252 73.845 66.2249 73.9133C66.3246 73.9892 66.4396 74.0499 66.5853 74.1105C66.731 74.1712 66.8845 74.2243 67.0532 74.285C67.2219 74.3457 67.3752 74.4216 67.5209 74.5126C67.6667 74.6036 67.7817 74.7174 67.8814 74.8615C67.981 75.0056 68.0271 75.1801 68.0271 75.4001C68.0271 75.7338 67.9044 76.0069 67.6513 76.2117C67.3982 76.4166 67.0301 76.5227 66.5393 76.5227C66.386 76.5227 66.2479 76.5152 66.1176 76.4924C65.9872 76.4696 65.8722 76.4469 65.7725 76.409C65.6728 76.3786 65.5808 76.3407 65.5041 76.3028C65.4274 76.2648 65.3584 76.2269 65.3047 76.1966L65.5654 75.6959C65.7111 75.7794 65.8645 75.84 66.0409 75.8931C66.2173 75.9462 66.3783 75.969 66.5164 75.969C66.5854 75.969 66.6774 75.9614 66.7847 75.9462C66.8921 75.9311 66.9918 75.9007 67.0915 75.8552C67.1912 75.8097 67.2679 75.749 67.3446 75.6807C67.4213 75.6125 67.4519 75.5139 67.4519 75.4001C67.4519 75.2635 67.4059 75.1574 67.3062 75.0739C67.2065 74.9905 67.0915 74.9146 66.9458 74.8464C66.8001 74.7781 66.6467 74.7174 66.478 74.6643C66.3093 74.6036 66.1559 74.5353 66.0102 74.4519C65.8645 74.3685 65.7495 74.2698 65.6498 74.1485C65.5501 74.0271 65.5041 73.8754 65.5041 73.6857C65.5041 73.5568 65.5271 73.4278 65.5807 73.2989C65.6344 73.1699 65.7111 73.0561 65.8185 72.9575C65.9258 72.8589 66.0562 72.7755 66.2173 72.7224C66.3783 72.6617 66.5624 72.6313 66.7694 72.6313C66.8998 72.6313 67.0225 72.639 67.1452 72.6617C67.2679 72.6845 67.3829 72.7072 67.4826 72.73C67.5823 72.7527 67.6666 72.7831 67.7356 72.8058C67.8047 72.8286 67.8507 72.8513 67.8737 72.8589V72.8438Z" fill="#827D7A"/>
<path d="M71.8594 76.4848V72.6389H72.4422V74.2774H74.39V72.6389H74.9805V73.716C74.9805 73.9815 74.9805 74.2622 74.9805 74.5581C74.9805 74.8539 74.9805 75.1422 74.9805 75.4001V76.4772H74.3977V74.816H72.4499V76.4772H71.8671L71.8594 76.4848Z" fill="#827D7A"/>
</svg>
