<svg width="140" height="42" viewBox="0 0 140 42" fill="none" xmlns="http://www.w3.org/2000/svg">
<path d="M0.726562 36.4498H1.44079V41.0565H0.726562V36.4498Z" fill="#827D7A"/>
<path d="M6.92034 36.4498V37.11H5.71224V41.0565H4.99801V37.11H3.82031V36.4498H6.92034Z" fill="#827D7A"/>
<path d="M9.28104 36.2448C9.32663 36.3034 9.4102 36.4208 9.53177 36.5822C9.65334 36.7509 9.79771 36.9416 9.96487 37.1617C10.132 37.3817 10.3068 37.6165 10.4891 37.8659C10.6715 38.1153 10.8462 38.35 11.0058 38.5628C11.1654 38.7828 11.3097 38.9735 11.4313 39.1349C11.5529 39.2963 11.6289 39.399 11.6744 39.4503C11.6972 39.421 11.7656 39.333 11.872 39.1789C11.9784 39.0249 12.1227 38.8415 12.2823 38.6214C12.4419 38.4014 12.6166 38.1666 12.8066 37.9172C12.9965 37.6678 13.1789 37.4258 13.346 37.1984C13.5132 36.971 13.6652 36.7656 13.7943 36.5969C13.9235 36.4208 14.0071 36.3034 14.0527 36.2448V41.0568H13.2929V38.4747C13.2929 38.4747 13.2928 38.4014 13.3004 38.3647C13.3004 38.328 13.308 38.2987 13.308 38.284C13.2701 38.3354 13.2093 38.4234 13.1257 38.5408C13.0345 38.6581 12.9357 38.7975 12.8294 38.9515C12.7154 39.1056 12.6014 39.267 12.4798 39.443C12.3583 39.6117 12.2443 39.7731 12.1303 39.9271C12.024 40.0812 11.9252 40.2132 11.8416 40.3306C11.758 40.448 11.7048 40.5287 11.6668 40.5727C11.6365 40.536 11.5757 40.4553 11.4845 40.3379C11.3933 40.2206 11.2869 40.0739 11.1654 39.9125C11.0438 39.7511 10.9146 39.5824 10.7855 39.399C10.6487 39.2156 10.5271 39.0469 10.4132 38.8929C10.2992 38.7388 10.2004 38.5994 10.1168 38.4894C10.0333 38.3794 9.98767 38.306 9.97248 38.284C9.97248 38.2987 9.97246 38.328 9.98006 38.3647C9.98006 38.4014 9.98766 38.4381 9.98766 38.4747V41.0568H9.27344V36.2448H9.28104Z" fill="#827D7A"/>
<path d="M19.6968 41.0565C19.674 41.0124 19.6436 40.9391 19.6056 40.8511C19.5676 40.763 19.522 40.6604 19.4688 40.543C19.4157 40.4256 19.3625 40.3009 19.3017 40.1615C19.2409 40.0222 19.1801 39.8828 19.1193 39.7361H17.4325L16.8627 41.0565H16.1484L18.2759 36.2297C18.3139 36.3031 18.3823 36.4645 18.4887 36.7139C18.595 36.9633 18.7242 37.2494 18.8686 37.5868C19.0129 37.9242 19.1649 38.269 19.3321 38.6431C19.4992 39.0172 19.6512 39.3693 19.8032 39.6994C19.9475 40.0295 20.0767 40.3156 20.1831 40.565C20.2894 40.8144 20.3654 40.9758 20.3958 41.0491H19.6816L19.6968 41.0565ZM17.6909 39.1492H18.8838C18.823 39.0099 18.7698 38.8778 18.709 38.7458C18.6482 38.6138 18.6026 38.4964 18.5571 38.3864C18.5115 38.2763 18.4735 38.181 18.4355 38.1003C18.3975 38.0196 18.3747 37.9536 18.3595 37.9095C18.3595 37.9022 18.3443 37.8729 18.3291 37.8215C18.3139 37.7702 18.2987 37.7262 18.2911 37.6821C18.2835 37.7262 18.2683 37.7702 18.2531 37.8215C18.2379 37.8729 18.2227 37.9022 18.2227 37.9095L17.6985 39.1419L17.6909 39.1492Z" fill="#827D7A"/>
<path d="M22.5076 36.2448C22.5532 36.3034 22.6368 36.4208 22.7583 36.5822C22.8799 36.7509 23.0243 36.9416 23.1914 37.1617C23.3586 37.3817 23.5333 37.6165 23.7157 37.8659C23.898 38.1153 24.0728 38.35 24.2324 38.5628C24.3919 38.7828 24.5363 38.9735 24.6579 39.1349C24.7794 39.2963 24.8554 39.399 24.901 39.4503C24.9238 39.421 24.9922 39.333 25.0985 39.1789C25.2049 39.0249 25.3493 38.8415 25.5089 38.6214C25.6684 38.4014 25.8432 38.1666 26.0331 37.9172C26.2231 37.6678 26.4054 37.4258 26.5726 37.1984C26.7397 36.971 26.8917 36.7656 27.0209 36.5969C27.15 36.4208 27.2336 36.3034 27.2792 36.2448V41.0568H26.5194V38.4747C26.5194 38.4747 26.5194 38.4014 26.527 38.3647C26.527 38.328 26.5346 38.2987 26.5346 38.284C26.4966 38.3354 26.4358 38.4234 26.3522 38.5408C26.2611 38.6581 26.1623 38.7975 26.0559 38.9515C25.9419 39.1056 25.828 39.267 25.7064 39.443C25.5848 39.6117 25.4709 39.7731 25.3569 39.9271C25.2505 40.0812 25.1517 40.2132 25.0681 40.3306C24.9846 40.448 24.9314 40.5287 24.8934 40.5727C24.863 40.536 24.8022 40.4553 24.7111 40.3379C24.6199 40.2206 24.5135 40.0739 24.3919 39.9125C24.2704 39.7511 24.1412 39.5824 24.012 39.399C23.8753 39.2156 23.7537 39.0469 23.6397 38.8929C23.5257 38.7388 23.427 38.5994 23.3434 38.4894C23.2598 38.3794 23.2142 38.306 23.199 38.284C23.199 38.2987 23.199 38.328 23.2066 38.3647C23.2066 38.4014 23.2142 38.4381 23.2142 38.4747V41.0568H22.5V36.2448H22.5076Z" fill="#827D7A"/>
<path d="M35.8831 40.7264C35.8299 40.7631 35.7539 40.8071 35.6627 40.8511C35.5715 40.8951 35.4576 40.9391 35.3284 40.9758C35.1992 41.0125 35.0625 41.0491 34.9105 41.0711C34.7585 41.0931 34.5914 41.1078 34.409 41.1078C34.0367 41.1078 33.7024 41.0418 33.4061 40.9171C33.1097 40.7924 32.859 40.6237 32.6539 40.4109C32.4487 40.1982 32.2892 39.9561 32.1828 39.6774C32.0764 39.3986 32.0156 39.0979 32.0156 38.7898C32.0156 38.445 32.084 38.1223 32.2132 37.8289C32.3424 37.5354 32.5171 37.286 32.745 37.0733C32.973 36.8606 33.2313 36.6992 33.5353 36.5745C33.8392 36.4571 34.1583 36.3984 34.4926 36.3984C34.6218 36.3984 34.7509 36.4058 34.8801 36.4204C35.0093 36.4351 35.1385 36.4645 35.2524 36.4938C35.3664 36.5231 35.4728 36.5598 35.564 36.5965C35.6551 36.6332 35.7235 36.6772 35.7691 36.7212C35.7387 36.7725 35.7083 36.8166 35.6931 36.8459C35.6703 36.8826 35.6475 36.9119 35.6247 36.9486C35.6019 36.9853 35.5791 37.0293 35.5488 37.0733C35.526 37.1173 35.488 37.1833 35.4424 37.2567C35.3816 37.22 35.3208 37.1833 35.2448 37.1613C35.1688 37.1393 35.0853 37.1173 35.0017 37.0953C34.9181 37.0806 34.8345 37.066 34.751 37.0586C34.6674 37.0513 34.5838 37.044 34.5154 37.044C34.2647 37.044 34.0215 37.088 33.8088 37.1833C33.5884 37.2714 33.4061 37.3961 33.2465 37.5501C33.087 37.7042 32.9654 37.8802 32.8742 38.0856C32.783 38.2837 32.7375 38.4964 32.7375 38.7238C32.7375 38.9512 32.783 39.1492 32.8666 39.3473C32.9502 39.5454 33.0718 39.7214 33.2237 39.8828C33.3757 40.0368 33.558 40.1615 33.7708 40.2569C33.9835 40.3523 34.2191 40.3963 34.4698 40.3963C34.6066 40.3963 34.7358 40.3816 34.8649 40.3596C34.9941 40.3376 35.1081 40.3082 35.2068 40.2716C35.3056 40.2349 35.3892 40.2055 35.4576 40.1689C35.526 40.1322 35.564 40.1102 35.5791 40.0955L35.8831 40.7264Z" fill="#827D7A"/>
<path d="M37.7344 38.7533C37.7344 38.4378 37.7952 38.1371 37.9243 37.851C38.0535 37.5649 38.2283 37.3155 38.4486 37.0954C38.6689 36.8827 38.9273 36.7066 39.2236 36.5819C39.5199 36.4572 39.8314 36.3912 40.1658 36.3912C40.5001 36.3912 40.8116 36.4572 41.1079 36.5819C41.4043 36.7066 41.6626 36.8754 41.8829 37.0954C42.1033 37.3082 42.2781 37.5649 42.4072 37.851C42.5364 38.1371 42.6048 38.4378 42.6048 38.7533C42.6048 39.0687 42.5364 39.3768 42.4072 39.6628C42.2781 39.9489 42.1033 40.1983 41.8829 40.4111C41.6626 40.6238 41.4043 40.7925 41.1079 40.9172C40.8116 41.0419 40.5001 41.1006 40.1658 41.1006C39.8314 41.1006 39.5199 41.0419 39.2236 40.9172C38.9273 40.7925 38.6689 40.6238 38.4486 40.4111C38.2283 40.1983 38.0535 39.9489 37.9243 39.6628C37.7952 39.3768 37.7344 39.076 37.7344 38.7533ZM38.4562 38.7606C38.4562 38.9953 38.5018 39.2154 38.593 39.4208C38.6841 39.6262 38.8057 39.8022 38.9653 39.9563C39.1248 40.1103 39.3072 40.2277 39.5199 40.3157C39.7327 40.4037 39.953 40.4477 40.1886 40.4477C40.4241 40.4477 40.652 40.4037 40.8572 40.3157C41.0623 40.2277 41.2447 40.103 41.4043 39.9563C41.5562 39.8022 41.6854 39.6262 41.7766 39.4134C41.8677 39.208 41.9133 38.988 41.9133 38.7533C41.9133 38.5185 41.8677 38.2984 41.7766 38.093C41.6854 37.8877 41.5638 37.7116 41.4043 37.5576C41.2447 37.4035 41.0623 37.2861 40.8572 37.1981C40.652 37.1101 40.4241 37.0661 40.1886 37.0661C39.953 37.0661 39.7251 37.1101 39.5199 37.1981C39.3072 37.2861 39.1248 37.4109 38.9729 37.5576C38.8133 37.7116 38.6917 37.8877 38.6005 38.093C38.5094 38.2984 38.4638 38.5185 38.4638 38.7606H38.4562Z" fill="#827D7A"/>
<path d="M49.1475 36.4498V41.2692C49.0867 41.1958 48.9652 41.0711 48.7904 40.9024C48.6156 40.7337 48.4105 40.5356 48.1825 40.3156C47.9546 40.0955 47.7115 39.8608 47.4531 39.6261C47.1948 39.3913 46.9517 39.1566 46.7237 38.9365C46.4958 38.7165 46.2982 38.5257 46.1235 38.3497C45.9487 38.181 45.8347 38.0563 45.7815 37.9829L45.66 37.8142L45.6828 38.0196V41.0565H44.9609V36.2297C45.0293 36.3031 45.1433 36.4278 45.3181 36.5965C45.4928 36.7652 45.6904 36.9559 45.9183 37.176C46.1463 37.3887 46.3894 37.6161 46.6477 37.8582C46.9061 38.0929 47.1492 38.3203 47.3771 38.5331C47.6051 38.7458 47.8026 38.9365 47.9774 39.1052C48.1522 39.2739 48.2661 39.3913 48.3269 39.4647L48.4485 39.6407L48.4257 39.428V36.4498H49.1399H49.1475Z" fill="#827D7A"/>
<path d="M54.5591 36.7066L54.3008 37.2714C54.1185 37.2054 53.9437 37.154 53.7613 37.1174C53.5866 37.0807 53.4118 37.0587 53.2523 37.0587C52.9788 37.0587 52.7584 37.1174 52.5912 37.2274C52.4241 37.3374 52.3481 37.4768 52.3481 37.6455C52.3481 37.7922 52.4089 37.9023 52.5228 37.9903C52.6368 38.0783 52.7888 38.159 52.9636 38.225C53.1383 38.2984 53.3283 38.3644 53.5334 38.4377C53.7386 38.5111 53.9285 38.5991 54.1033 38.7092C54.278 38.8192 54.4224 38.9586 54.544 39.1273C54.6655 39.296 54.7187 39.5087 54.7187 39.7728C54.7187 40.1762 54.5668 40.499 54.2628 40.7484C53.9589 40.9978 53.503 41.1152 52.9028 41.1152C52.7128 41.1152 52.538 41.1005 52.3861 41.0785C52.2265 41.0565 52.0898 41.0198 51.9606 40.9831C51.839 40.9465 51.7251 40.9025 51.6339 40.8511C51.5427 40.8071 51.4591 40.7631 51.3907 40.7264L51.7098 40.1249C51.8846 40.2203 52.0822 40.301 52.2949 40.3596C52.5077 40.4183 52.7052 40.4477 52.88 40.4477C52.9712 40.4477 53.0775 40.4403 53.2067 40.4183C53.3359 40.3963 53.4574 40.3596 53.579 40.3083C53.7006 40.2569 53.7994 40.1836 53.8829 40.0956C53.9665 40.0075 54.0121 39.8975 54.0121 39.7581C54.0121 39.5967 53.9513 39.4647 53.8373 39.362C53.7233 39.2593 53.5714 39.1713 53.3966 39.0906C53.2219 39.0099 53.0319 38.9366 52.8268 38.8705C52.6216 38.7972 52.4317 38.7165 52.2569 38.6211C52.0822 38.5258 51.9378 38.4011 51.8162 38.2617C51.6947 38.115 51.6415 37.9316 51.6415 37.7115C51.6415 37.5575 51.6719 37.4034 51.7403 37.2494C51.8086 37.0953 51.9074 36.9633 52.0366 36.8459C52.1657 36.7286 52.3329 36.6332 52.5305 36.5599C52.728 36.4865 52.956 36.4498 53.2143 36.4498C53.3739 36.4498 53.5258 36.4645 53.6778 36.4865C53.8297 36.5085 53.9665 36.5379 54.0881 36.5745C54.2096 36.6039 54.316 36.6406 54.3996 36.6699C54.4832 36.6992 54.544 36.7213 54.5667 36.7359L54.5591 36.7066Z" fill="#827D7A"/>
<path d="M59.8344 36.4498V37.11H58.6263V41.0565H57.9121V37.11H56.7344V36.4498H59.8344Z" fill="#827D7A"/>
<path d="M62.1953 41.0565V36.4498H63.5022C63.753 36.4498 63.9809 36.4792 64.1936 36.5452C64.3988 36.6112 64.5811 36.7066 64.7331 36.8313C64.8851 36.956 64.9991 37.11 65.0826 37.2861C65.1662 37.4695 65.2042 37.6749 65.2042 37.9023C65.2042 38.027 65.189 38.159 65.1662 38.2837C65.1434 38.4084 65.0978 38.5331 65.0371 38.6431C64.9763 38.7605 64.9002 38.8632 64.8091 38.9659C64.7179 39.0612 64.6039 39.1493 64.4748 39.2226C64.6495 39.4867 64.8395 39.7875 65.0446 40.1102C65.2498 40.433 65.4625 40.7484 65.6677 41.0638H64.8091C64.7179 40.9318 64.6267 40.7924 64.5355 40.6531C64.4444 40.5137 64.3456 40.367 64.2544 40.2203C64.1632 40.0809 64.0645 39.9415 63.9809 39.8021C63.8897 39.6628 63.8061 39.5381 63.7301 39.4207H62.9247V41.0638H62.2029L62.1953 41.0565ZM62.9247 38.7532H63.5782C63.7605 38.7532 63.9049 38.7238 64.0189 38.6651C64.1329 38.6064 64.224 38.5404 64.2924 38.4524C64.3608 38.3644 64.4064 38.2764 64.4368 38.181C64.4672 38.0856 64.4824 37.9976 64.4824 37.9169C64.4824 37.8362 64.4672 37.7482 64.4368 37.6529C64.4064 37.5575 64.3608 37.4695 64.2924 37.3888C64.224 37.3081 64.1252 37.2347 64.0113 37.1834C63.8973 37.132 63.7529 37.1027 63.5782 37.1027H62.9171V38.7605L62.9247 38.7532Z" fill="#827D7A"/>
<path d="M69.6128 41.108C69.3544 41.108 69.1189 41.0713 68.8985 40.9906C68.6782 40.91 68.4883 40.7999 68.3211 40.6532C68.1539 40.5065 68.0248 40.3305 67.9336 40.1251C67.8424 39.9197 67.7892 39.6923 67.7892 39.4355V36.4573H68.5111V39.4209C68.5111 39.5676 68.5414 39.6996 68.5946 39.8243C68.6478 39.949 68.7238 40.0591 68.8226 40.1544C68.9213 40.2498 69.0353 40.3231 69.1645 40.3745C69.2937 40.4258 69.438 40.4551 69.5976 40.4551C69.7571 40.4551 69.8939 40.4258 70.0307 40.3745C70.1675 40.3231 70.2814 40.2498 70.3802 40.1544C70.4789 40.0591 70.5549 39.949 70.6157 39.8243C70.6765 39.6996 70.6993 39.5602 70.6993 39.4209V36.4573H71.4211V39.4355C71.4211 39.6923 71.3755 39.9197 71.2767 40.1251C71.1856 40.3305 71.0564 40.5065 70.8892 40.6532C70.7221 40.7999 70.5322 40.91 70.3118 40.9906C70.0915 41.0713 69.8483 41.108 69.5976 41.108H69.6128Z" fill="#827D7A"/>
<path d="M77.6175 40.7264C77.5643 40.7631 77.4883 40.8071 77.3971 40.8511C77.3059 40.8951 77.192 40.9391 77.0628 40.9758C76.9337 41.0125 76.7968 41.0491 76.6449 41.0711C76.4929 41.0931 76.3258 41.1078 76.1434 41.1078C75.7711 41.1078 75.4368 41.0418 75.1405 40.9171C74.8441 40.7924 74.5934 40.6237 74.3883 40.4109C74.1831 40.1982 74.0236 39.9561 73.9172 39.6774C73.8108 39.3986 73.75 39.0979 73.75 38.7898C73.75 38.445 73.8184 38.1223 73.9476 37.8289C74.0767 37.5354 74.2515 37.286 74.4794 37.0733C74.7074 36.8606 74.9657 36.6992 75.2696 36.5745C75.5736 36.4571 75.8927 36.3984 76.227 36.3984C76.3562 36.3984 76.4853 36.4058 76.6145 36.4204C76.7437 36.4351 76.8728 36.4645 76.9868 36.4938C77.1008 36.5231 77.2072 36.5598 77.2984 36.5965C77.3895 36.6332 77.4579 36.6772 77.5035 36.7212C77.4731 36.7725 77.4427 36.8166 77.4275 36.8459C77.4047 36.8826 77.3819 36.9119 77.3591 36.9486C77.3363 36.9853 77.3135 37.0293 77.2831 37.0733C77.2604 37.1173 77.2224 37.1833 77.1768 37.2567C77.1236 37.22 77.0552 37.1833 76.9792 37.1613C76.9032 37.1393 76.8196 37.1173 76.7361 37.0953C76.6525 37.0806 76.5689 37.066 76.4854 37.0586C76.4018 37.0513 76.3182 37.044 76.2498 37.044C75.9991 37.044 75.7559 37.088 75.5432 37.1833C75.3228 37.2714 75.1405 37.3961 74.9809 37.5501C74.8213 37.7042 74.6998 37.8802 74.6086 38.0856C74.5174 38.291 74.4718 38.4964 74.4718 38.7238C74.4718 38.9512 74.5174 39.1492 74.601 39.3473C74.6846 39.5454 74.8062 39.7214 74.9581 39.8828C75.1101 40.0368 75.2924 40.1615 75.5052 40.2569C75.7179 40.3523 75.9535 40.3963 76.2042 40.3963C76.341 40.3963 76.4701 40.3816 76.5993 40.3596C76.7285 40.3376 76.8424 40.3082 76.9412 40.2716C77.04 40.2349 77.1236 40.2055 77.192 40.1689C77.2604 40.1322 77.2983 40.1102 77.3135 40.0955L77.6175 40.7264Z" fill="#827D7A"/>
<path d="M82.5532 36.4498V37.11H81.3451V41.0565H80.6308V37.11H79.4531V36.4498H82.5532Z" fill="#827D7A"/>
<path d="M84.9219 36.4498H85.6361V41.0565H84.9219V36.4498Z" fill="#827D7A"/>
<path d="M88 38.7533C88 38.4378 88.0608 38.1371 88.19 37.851C88.3191 37.5649 88.4939 37.3155 88.7142 37.0954C88.9346 36.8827 89.1929 36.7066 89.4893 36.5819C89.7856 36.4572 90.0971 36.3912 90.4314 36.3912C90.7657 36.3912 91.0772 36.4572 91.3736 36.5819C91.6699 36.7066 91.9283 36.8754 92.1486 37.0954C92.3689 37.3082 92.5437 37.5649 92.6729 37.851C92.802 38.1371 92.8704 38.4378 92.8704 38.7533C92.8704 39.0687 92.802 39.3768 92.6729 39.6628C92.5437 39.9489 92.3689 40.1983 92.1486 40.4111C91.9283 40.6238 91.6699 40.7925 91.3736 40.9172C91.0772 41.0419 90.7657 41.1006 90.4314 41.1006C90.0971 41.1006 89.7856 41.0419 89.4893 40.9172C89.1929 40.7925 88.9346 40.6238 88.7142 40.4111C88.4939 40.1983 88.3191 39.9489 88.19 39.6628C88.0608 39.3768 88 39.076 88 38.7533ZM88.7142 38.7606C88.7142 38.9953 88.7598 39.2154 88.851 39.4208C88.9422 39.6262 89.0638 39.8022 89.2233 39.9563C89.3829 40.1103 89.5652 40.2277 89.778 40.3157C89.9907 40.4037 90.2111 40.4477 90.4466 40.4477C90.6822 40.4477 90.9101 40.4037 91.1153 40.3157C91.3204 40.2277 91.5027 40.103 91.6623 39.9563C91.8143 39.8022 91.9434 39.6262 92.0346 39.4134C92.1258 39.208 92.1714 38.988 92.1714 38.7533C92.1714 38.5185 92.1258 38.2984 92.0346 38.093C91.9434 37.8877 91.8219 37.7116 91.6623 37.5576C91.5027 37.4035 91.3204 37.2861 91.1153 37.1981C90.9101 37.1101 90.6822 37.0661 90.4466 37.0661C90.2111 37.0661 89.9831 37.1101 89.778 37.1981C89.5652 37.2861 89.3829 37.4109 89.2309 37.5576C89.0789 37.7043 88.9498 37.8877 88.8586 38.093C88.7674 38.2984 88.7218 38.5185 88.7218 38.7606H88.7142Z" fill="#827D7A"/>
<path d="M99.4053 36.4498V41.2692C99.3445 41.1958 99.2229 41.0711 99.0482 40.9024C98.8734 40.7337 98.6683 40.5356 98.4404 40.3156C98.2124 40.0955 97.9693 39.8608 97.711 39.6261C97.4526 39.384 97.2095 39.1566 96.9815 38.9365C96.7536 38.7165 96.556 38.5257 96.3813 38.3497C96.2065 38.181 96.0925 38.0563 96.0394 37.9829L95.9178 37.8142L95.9406 38.0196V41.0565H95.2188V36.2297C95.2871 36.3031 95.4011 36.4278 95.5759 36.5965C95.7506 36.7652 95.9482 36.9559 96.1761 37.176C96.4041 37.3887 96.6472 37.6161 96.9056 37.8582C97.1639 38.0929 97.407 38.3203 97.635 38.5331C97.8629 38.7458 98.0605 38.9365 98.2352 39.1052C98.41 39.2739 98.5239 39.3913 98.5847 39.4647L98.7063 39.6407L98.6835 39.428V36.4498H99.3977H99.4053Z" fill="#827D7A"/>
<path d="M122.158 35.2982V38.049H120V35.2982" fill="#827D7A"/>
<path d="M120.01 34.9094V2.24465C118.057 2.69211 115.292 3.66774 112.837 5.76568C109.684 8.45779 108.712 11.568 108.408 13.2332L108.636 41.3206L106.478 41.3353L106.242 13.1011L106.257 13.0278C106.584 11.1646 107.671 7.57753 111.303 4.47463C114.783 1.50377 118.802 0.520832 120.899 0.198072L122.175 0V34.9094" fill="#827D7A"/>
<path d="M124.07 35.2982V38.049H126.228V35.2982" fill="#827D7A"/>
<path d="M126.236 34.9094V2.24465C128.188 2.69211 130.954 3.66774 133.408 5.76568C136.562 8.45779 137.534 11.568 137.838 13.2332L137.61 41.3206L139.768 41.3353L140.004 13.1011L139.988 13.0278C139.662 11.1646 138.575 7.57753 134.943 4.47463C131.463 1.50377 127.444 0.520832 125.347 0.198072L124.07 0V34.9094" fill="#827D7A"/>
<path d="M114.211 32.9216V41.7022H131.991V32.9216H129.78L129.825 39.6189L116.278 39.5896V32.9216H114.211Z" fill="#827D7A"/>
<path d="M12.2102 26.2537C12.2102 27.6768 11.344 28.513 9.8168 28.513H4.68806C1.55763 28.513 0 27.244 0 24.6839V22.3072H1.95273V24.6839C1.95273 25.4908 2.21867 26.0483 2.74294 26.3417C3.15324 26.5765 3.80666 26.6865 4.72604 26.6865H8.38076C8.95062 26.6865 9.33053 26.6425 9.54327 26.5471C10.0144 26.3564 10.2499 25.9309 10.2499 25.2854V22.3146H12.2026V26.2537H12.2102ZM5.75179 22.3146H3.98144V20.7301H5.75179V22.3146ZM8.42635 22.3146H6.65597V20.7301H8.42635V22.3146Z" fill="#827D7A"/>
<path d="M20.7987 26.2682C20.7987 26.9357 20.5708 27.4712 20.1073 27.8967C19.6362 28.3075 19.0587 28.5129 18.3673 28.5129H13.6641V26.679H15.7763L13.9908 20.6199H16.0879L17.843 26.679C18.5117 26.6643 18.846 26.2022 18.846 25.2853V19.703H20.7987V26.2682Z" fill="#827D7A"/>
<path d="M28.4618 28.2342C28.4618 29.914 27.3829 30.7649 25.2174 30.7649H25.0199V29.2318H25.149C25.9392 29.2318 26.7219 28.6963 26.7219 27.9628C26.4559 28.3882 25.9848 28.5937 25.3162 28.5937C23.4851 28.5937 22.125 27.2513 22.125 25.4174C22.125 23.5835 23.4547 22.2852 25.3162 22.2852C27.1777 22.2852 28.4618 23.6422 28.4618 25.4467V28.2342ZM26.4787 25.4467C26.4787 24.6105 25.9848 24.0237 25.2706 24.0237C24.5564 24.0237 24.1081 24.5958 24.1081 25.4027C24.1081 26.2096 24.564 26.8111 25.339 26.8111C26.0456 26.8111 26.4711 26.2756 26.4711 25.4467H26.4787Z" fill="#827D7A"/>
<path d="M34.1923 28.513H32.3231C30.8035 28.513 29.9297 27.6621 29.9297 26.2537V19.6885H31.9128V25.2561C31.9128 26.1877 32.1559 26.6792 33.6148 26.6792H34.1923V28.513Z" fill="#827D7A"/>
<path d="M43.1923 28.5131H42.045C40.6698 28.5131 39.4921 28.3517 38.5043 28.007C37.5089 28.3517 36.3388 28.5131 34.9636 28.5131H33.6719V26.6792H34.9636C35.5866 26.6792 35.9665 26.6352 36.1261 26.5692C35.5182 25.9017 35.2067 25.1461 35.2067 24.3246C35.2067 23.9798 35.2599 23.6277 35.3739 23.2829C35.8298 21.9552 37.0151 21.119 38.5043 21.119C39.9935 21.119 41.194 21.9552 41.6347 23.2829C41.7487 23.6277 41.8019 23.9798 41.8019 24.3246C41.8019 25.1461 41.4904 25.8944 40.8825 26.5692C41.0497 26.6352 41.4372 26.6792 42.045 26.6792H43.1923V28.5131ZM38.0484 19.9306H36.2932V18.3608H38.0484V19.9306ZM39.1957 25.7623C39.7504 25.3809 40.0163 24.8601 40.0163 24.1925C40.0163 23.3343 39.4465 22.6227 38.4967 22.6227C38.0256 22.6227 37.6609 22.7841 37.3646 23.0996C37.1214 23.4003 36.9999 23.7671 36.9999 24.1925C36.9999 24.8601 37.2658 25.3809 37.8205 25.7623C38.0484 25.9237 38.2764 26.0631 38.5043 26.1731C38.7322 26.0631 38.9602 25.9237 39.1957 25.7623ZM40.7305 19.9306H38.9754V18.3608H40.7305V19.9306Z" fill="#827D7A"/>
<path d="M52.4352 28.5131H50.171C49.5935 29.2906 48.6969 29.6867 47.5192 29.6867C46.3415 29.6867 45.4221 29.2906 44.8295 28.5131H42.664V26.6792H44.252C44.252 24.706 45.4145 23.481 47.466 23.481C49.5175 23.481 50.7788 24.6693 50.7788 26.6792H52.4352V28.5131ZM48.8109 26.6352C48.8109 25.5569 48.3854 25.0067 47.5496 25.0067H47.4052C46.6834 25.0067 46.1971 25.6669 46.1971 26.5545C46.1971 27.4421 46.6758 28.1243 47.5116 28.1243C48.3474 28.1243 48.8033 27.5521 48.8033 26.6352H48.8109Z" fill="#827D7A"/>
<path d="M58.3888 28.5129H51.9531V26.679H53.298C53.9666 26.679 54.301 26.2389 54.301 25.366V19.703H56.2993V25.3C56.2993 25.8061 56.2157 26.2609 56.0561 26.679H58.3812V28.5129H58.3888Z" fill="#827D7A"/>
<path d="M62.2418 25.8721C62.2418 26.5983 62.0291 27.1998 61.6188 27.6766C61.1477 28.2341 60.5018 28.5129 59.666 28.5129H57.7969V26.679H59.2557C59.9243 26.679 60.2587 26.2242 60.2587 25.3366V19.703H62.2418V25.8721Z" fill="#827D7A"/>
<path d="M76.8671 25.4466C76.8671 26.4149 76.5555 27.1704 75.9477 27.7279C75.3398 28.2781 74.542 28.5495 73.5542 28.5495C72.5665 28.5495 71.7991 28.2634 71.2141 27.6986C70.6366 27.1411 70.3479 26.3855 70.3479 25.4392C70.3479 24.9771 70.4162 24.5517 70.5758 24.1702H69.6716C68.5699 24.1702 68.0152 24.8671 68.0152 26.2461V30.7721H66.0625V25.9454C66.0625 24.7717 66.4196 23.8548 67.111 23.2093C67.7493 22.6078 68.5699 22.307 69.588 22.307H73.6226C74.6028 22.307 75.393 22.5931 75.9781 23.1653C76.5707 23.7374 76.8671 24.493 76.8671 25.4392V25.4466ZM74.9143 25.3952C74.9143 24.9698 74.8155 24.6177 74.6028 24.3389C74.3597 24.0235 74.0329 23.8768 73.6074 23.8768C73.1819 23.8768 72.84 24.0382 72.6045 24.3683C72.3917 24.6544 72.293 25.0211 72.293 25.4466C72.293 25.872 72.3917 26.2095 72.5741 26.5029C72.802 26.8477 73.1136 27.009 73.5087 27.009H73.653C74.4888 27.009 74.9143 26.4735 74.9143 25.3952Z" fill="#827D7A"/>
<path d="M82.575 28.513H80.7059C79.1863 28.513 78.3125 27.6621 78.3125 26.2537V19.6885H80.2956V25.2561C80.2956 26.1877 80.5388 26.6792 81.9976 26.6792H82.575V28.513Z" fill="#827D7A"/>
<path d="M91.9509 28.5131H89.6866C89.1092 29.2906 88.2126 29.6867 87.0349 29.6867C85.8571 29.6867 84.9378 29.2906 84.3451 28.5131H82.1797V26.6792H83.7677C83.7677 24.706 84.9302 23.481 86.9817 23.481C89.0332 23.481 90.2945 24.6693 90.2945 26.6792H91.9509V28.5131ZM88.3265 26.6352C88.3265 25.5569 87.9011 25.0067 87.0653 25.0067H86.9209C86.1991 25.0067 85.7204 25.6669 85.7204 26.5545C85.7204 27.4421 86.1991 28.1243 87.0349 28.1243C87.8707 28.1243 88.3265 27.5521 88.3265 26.6352Z" fill="#827D7A"/>
<path d="M92.9739 21.2728H91.2188V19.703H92.9739V21.2728ZM95.7852 25.8721C95.7852 26.5983 95.5725 27.1998 95.1622 27.6766C94.6911 28.2341 94.0453 28.5129 93.2247 28.5129H91.5379V26.679H92.7992C93.4678 26.679 93.8021 26.2242 93.8021 25.3366V22.3144H95.7852V25.8721ZM95.6561 21.2728H93.8857V19.703H95.6561V21.2728Z" fill="#827D7A"/>
<path d="M99.3498 31.2345H96.7969V30.5376H97.3667C97.3211 30.3982 97.2983 30.2809 97.2983 30.1708C97.2983 29.5547 97.7542 29.0779 98.3925 29.0779C98.8332 29.0779 99.1599 29.2979 99.3422 29.7234L98.704 30.0095C98.6356 29.8334 98.5216 29.7381 98.3773 29.7381C98.1645 29.7381 98.0505 29.8774 98.0505 30.1488C98.0505 30.3542 98.1037 30.4936 98.2329 30.5303H99.3498V31.2418V31.2345ZM99.1979 28.513H97.2148V19.6885H99.1979V28.513Z" fill="#827D7A"/>
</svg>
